<?xml version="1.0" encoding="UTF-8"?>
<svg width="20px" height="20px" viewBox="0 0 20 20" version="1.1" xmlns="http://www.w3.org/2000/svg" xmlns:xlink="http://www.w3.org/1999/xlink">
    <!-- Generator: Sketch 59.1 (86144) - https://sketch.com -->
    <title>Combined Shape</title>
    <desc>Created with Sketch.</desc>
    <g id="1440x900" stroke="none" stroke-width="1" fill="none" fill-rule="evenodd">
        <g id="1-Home-Page-(1440)" transform="translate(-1241.000000, -1482.000000)" fill="#FFFFFF" fill-rule="nonzero">
            <g id="Group-15" transform="translate(0.000000, 60.000000)">
                <g id="Group-8" transform="translate(0.000000, 1402.000000)">
                    <g id="Group-229" transform="translate(1241.000000, 20.000000)">
                        <path d="M6.25,0 L13.75,0 C17.1246044,0 19.8752911,2.67574321 19.9958773,6.02090689 L20,6.25 L20,13.75 C20,17.1246044 17.3243046,19.8752911 13.9790963,19.9958773 L13.75,20 L6.25,20 C2.87544444,20 0.124711111,17.3243046 0.00412274348,13.9790963 L0,13.75 L0,6.25 C0,2.87544444 2.67574321,0.124711111 6.02090689,0.00412274348 L6.25,0 L13.75,0 Z M10,5 C7.23875,5 5,7.23875 5,10 C5,12.7613 7.23875,15 10,15 C12.7613,15 15,12.7613 15,10 C15,7.23875 12.7613,5 10,5 Z M10,6.875 C11.7225,6.875 13.125,8.27625 13.125,10 C13.125,11.7225 11.7225,13.125 10,13.125 C8.2775,13.125 6.875,11.7225 6.875,10 C6.875,8.27625 8.2775,6.875 10,6.875 Z M15.3733,3.95996 C15.0053,3.95996 14.707,4.25825 14.707,4.62621 C14.707,4.99417 15.0053,5.29246 15.3733,5.29246 C15.7412,5.29246 16.0395,4.99417 16.0395,4.62621 C16.0395,4.25825 15.7412,3.95996 15.3733,3.95996 Z" id="Combined-Shape"></path>
                    </g>
                </g>
            </g>
        </g>
    </g>
</svg>