<?xml version="1.0" encoding="UTF-8"?>
<svg width="91px" height="16px" viewBox="0 0 91 16" version="1.1" xmlns="http://www.w3.org/2000/svg" xmlns:xlink="http://www.w3.org/1999/xlink">
    <g id="1440x900" stroke="none" stroke-width="1" fill="none" fill-rule="evenodd">
        <path d="M5.13671875,15 C5.68359375,15 6.07421875,14.8502604 6.30859375,14.5507812 C6.52994792,14.2903646 6.6015625,13.9257812 6.5234375,13.4570312 L6.5234375,13.4570312 L6.328125,13.2226562 C6.23697917,13.2096354 6.13932292,13.1575521 6.03515625,13.0664062 C6.00911458,13.0403646 5.9765625,13.0208333 5.9375,13.0078125 C5.8984375,12.9947917 5.86588542,12.9752604 5.83984375,12.9492188 C5.81380208,12.8710938 5.78125,12.8059896 5.7421875,12.7539062 C5.703125,12.7018229 5.6640625,12.6497396 5.625,12.5976562 C5.59895833,12.5325521 5.59244792,12.4641927 5.60546875,12.3925781 C5.61848958,12.3209635 5.63802083,12.2395833 5.6640625,12.1484375 C5.67708333,12.0703125 5.69010417,11.9921875 5.703125,11.9140625 C5.71614583,11.8359375 5.72265625,11.7578125 5.72265625,11.6796875 C5.77473958,11.6015625 5.81380208,11.4908854 5.83984375,11.3476562 C5.82682292,11.3085938 5.83333333,11.2532552 5.859375,11.1816406 C5.88541667,11.110026 5.91145833,11.0416667 5.9375,10.9765625 C6.00260417,10.8203125 6.0546875,10.6575521 6.09375,10.4882812 C6.14583333,10.4231771 6.18164062,10.3645833 6.20117188,10.3125 C6.22070312,10.2604167 6.27604167,10.1888021 6.3671875,10.0976562 L6.3671875,10.0976562 L6.4453125,9.8046875 C6.51041667,9.62239583 6.58528646,9.40104167 6.66992188,9.140625 C6.75455729,8.88020833 6.89453125,8.63932292 7.08984375,8.41796875 C7.15494792,8.14453125 7.23958333,7.90039063 7.34375,7.68554687 C7.44791667,7.47070312 7.578125,7.24609375 7.734375,7.01171875 C7.82552083,6.68619792 7.92317708,6.38997396 8.02734375,6.12304688 C8.13151042,5.85611979 8.2421875,5.59244792 8.359375,5.33203125 C8.4765625,5.07161458 8.58723958,4.81119792 8.69140625,4.55078125 C8.79557292,4.29036458 8.91276042,3.99088542 9.04296875,3.65234375 C9.27734375,3.62630208 9.53776042,3.59700521 9.82421875,3.56445312 C10.1106771,3.53190104 10.4101562,3.49609375 10.7226562,3.45703125 C11.1523438,3.39192708 11.5950521,3.33333333 12.0507812,3.28125 C12.5065104,3.22916667 12.9296875,3.203125 13.3203125,3.203125 L13.3203125,3.203125 L13.59375,3.203125 C13.671875,3.203125 13.7825521,3.20963542 13.9257812,3.22265625 C14.0039062,3.19661458 14.0755208,3.17382812 14.140625,3.15429688 C14.2057292,3.13476562 14.2643229,3.11197917 14.3164062,3.0859375 C14.4075521,3.046875 14.4856771,3.01757812 14.5507812,2.99804688 C14.6158854,2.97851562 14.7135417,2.96875 14.84375,2.96875 L14.84375,2.96875 L15.0585938,2.96875 L15.2539062,2.71484375 C15.3320312,2.66276042 15.3971354,2.61067708 15.4492188,2.55859375 L15.4492188,2.55859375 L15.546875,2.36328125 C15.5989583,1.90755208 15.530599,1.5625 15.3417969,1.328125 C15.1529948,1.09375 14.9609375,0.8984375 14.765625,0.7421875 C14.6614583,0.6640625 14.5703125,0.5859375 14.4921875,0.5078125 C14.4140625,0.4296875 14.3489583,0.345052083 14.296875,0.25390625 L14.296875,0.25390625 L14.0625,0.078125 C13.8802083,0.0520833333 13.6914062,0.0325520833 13.4960938,0.01953125 C13.3007812,0.00651041667 13.0924479,0 12.8710938,0 C12.3632812,0 11.8424479,0.0325520833 11.3085938,0.09765625 C10.7747396,0.162760417 10.2473958,0.227864583 9.7265625,0.29296875 C9.34895833,0.345052083 8.984375,0.393880208 8.6328125,0.439453125 C8.28125,0.485026042 7.93619792,0.520833333 7.59765625,0.546875 C7.53255208,0.46875 7.44140625,0.387369792 7.32421875,0.302734375 C7.20703125,0.218098958 6.99869792,0.182291667 6.69921875,0.1953125 L6.69921875,0.1953125 L6.484375,0.3125 C6.45833333,0.364583333 6.43554688,0.41015625 6.41601562,0.44921875 C6.39648438,0.48828125 6.35416667,0.579427083 6.2890625,0.72265625 C5.59895833,0.76171875 4.95442708,0.8203125 4.35546875,0.8984375 C3.80859375,0.950520833 3.27473958,0.99609375 2.75390625,1.03515625 C2.23307292,1.07421875 1.72526042,1.09375 1.23046875,1.09375 L1.23046875,1.09375 L0.908203125,1.09375 C0.797526042,1.09375 0.690104167,1.08723958 0.5859375,1.07421875 L0.5859375,1.07421875 L0.29296875,1.07421875 L0.21484375,1.42578125 C0.17578125,1.46484375 0.13671875,1.51367188 0.09765625,1.57226562 C0.05859375,1.63085938 0.0260416667,1.72526042 0,1.85546875 C0,2.10286458 0.0260416667,2.31770833 0.078125,2.5 C0.130208333,2.68229167 0.188802083,2.8515625 0.25390625,3.0078125 C0.29296875,3.11197917 0.328776042,3.20638021 0.361328125,3.29101562 C0.393880208,3.37565104 0.416666667,3.47005208 0.4296875,3.57421875 L0.4296875,3.57421875 L0.4296875,3.7890625 L0.64453125,3.84765625 C0.709635417,3.86067708 0.78125,3.93880208 0.859375,4.08203125 L0.859375,4.08203125 L0.99609375,4.23828125 C1.13932292,4.31640625 1.27604167,4.36523438 1.40625,4.38476562 C1.53645833,4.40429688 1.65364583,4.4140625 1.7578125,4.4140625 L1.7578125,4.4140625 L2.75390625,4.4140625 C2.84505208,4.375 2.96875,4.35546875 3.125,4.35546875 L3.125,4.35546875 L3.59375,4.35546875 C3.68489583,4.35546875 3.77604167,4.35221354 3.8671875,4.34570312 C3.95833333,4.33919271 4.05598958,4.30989583 4.16015625,4.2578125 C4.21223958,4.27083333 4.296875,4.27734375 4.4140625,4.27734375 C4.5703125,4.27734375 4.73307292,4.2578125 4.90234375,4.21875 C4.98046875,4.20572917 5.05533854,4.19596354 5.12695312,4.18945312 C5.19856771,4.18294271 5.27994792,4.1796875 5.37109375,4.1796875 C5.35807292,4.2578125 5.32877604,4.34895833 5.28320312,4.453125 C5.23763021,4.55729167 5.18880208,4.66145833 5.13671875,4.765625 C5.05859375,4.93489583 4.98697917,5.10091146 4.921875,5.26367188 C4.85677083,5.42643229 4.82421875,5.59244792 4.82421875,5.76171875 C4.79817708,5.77473958 4.73958333,5.8203125 4.6484375,5.8984375 L4.6484375,5.8984375 L4.43359375,6.11328125 C4.34244792,6.45182292 4.23828125,6.78385417 4.12109375,7.109375 C4.00390625,7.43489583 3.88020833,7.75390625 3.75,8.06640625 C3.515625,8.65234375 3.30078125,9.25455729 3.10546875,9.87304688 C2.91015625,10.4915365 2.82552083,11.2565104 2.8515625,12.1679688 C2.91666667,12.2591146 2.96549479,12.3632812 2.99804688,12.4804688 C3.03059896,12.5976562 3.06640625,12.7278646 3.10546875,12.8710938 C3.14453125,13.0533854 3.19335938,13.2291667 3.25195312,13.3984375 C3.31054688,13.5677083 3.39192708,13.7239583 3.49609375,13.8671875 C3.49609375,13.9192708 3.48958333,14.0104167 3.4765625,14.140625 L3.4765625,14.140625 L3.69140625,14.2578125 C3.76953125,14.3098958 3.87369792,14.3554688 4.00390625,14.3945312 C4.02994792,14.4205729 4.0625,14.436849 4.1015625,14.4433594 L4.13845486,14.453125 C4.16160301,14.4618056 4.18185764,14.4748264 4.19921875,14.4921875 C4.26432292,14.5833333 4.3359375,14.6451823 4.4140625,14.6777344 C4.4921875,14.7102865 4.58984375,14.7526042 4.70703125,14.8046875 C4.72005208,14.8307292 4.77213542,14.8893229 4.86328125,14.9804688 L4.86328125,14.9804688 L5.13671875,15 Z M21.4564732,15.2050781 C22.0684524,15.3417969 22.5762649,15.3320313 22.9799107,15.1757812 C23.0970982,15.1627604 23.188244,15.1269531 23.2533482,15.0683594 C23.3184524,15.0097656 23.3770461,14.9414062 23.4291295,14.8632812 L23.4291295,14.8632812 L23.5853795,14.6289062 C23.6374628,14.5507812 23.702567,14.4856771 23.780692,14.4335938 C23.7286086,14.4205729 23.6797805,14.4173177 23.6342076,14.4238281 C23.5886347,14.4303385 23.5593378,14.4140625 23.546317,14.375 C23.624442,14.2838542 23.6700149,14.1634115 23.6830357,14.0136719 C23.6960565,13.8639323 23.6895461,13.7076823 23.6635045,13.5449219 C23.6374628,13.3821615 23.5821243,13.219401 23.4974888,13.0566406 C23.4128534,12.8938802 23.311942,12.7539062 23.1947545,12.6367188 C22.8952753,12.6106771 22.6641555,12.5878906 22.5013951,12.5683594 C22.3386347,12.5488281 22.1791295,12.5227865 22.0228795,12.4902344 C21.8666295,12.4576823 21.6941034,12.4186198 21.5053013,12.3730469 C21.3164993,12.327474 21.0528274,12.265625 20.7142857,12.1875 C20.375744,12.109375 20.1120722,12.0410156 19.9232701,11.9824219 C19.734468,11.9238281 19.5586868,11.8554688 19.3959263,11.7773438 C19.2331659,11.6992188 19.0606399,11.6015625 18.8783482,11.484375 C18.6960565,11.3671875 18.4486607,11.2109375 18.1361607,11.015625 C18.1491815,10.9505208 18.1329055,10.9179688 18.0873326,10.9179688 C18.0417597,10.9179688 18.0189732,10.8919271 18.0189732,10.8398438 C18.4486607,10.6575521 18.9304315,10.4882812 19.4642857,10.3320312 C19.9981399,10.1757812 20.499442,9.98372396 20.968192,9.75585938 C21.436942,9.52799479 21.8373326,9.23828125 22.1693638,8.88671875 C22.5013951,8.53515625 22.686942,8.07291667 22.7260045,7.5 C22.7390253,7.40885417 22.7390253,7.33723958 22.7260045,7.28515625 C22.7129836,7.23307292 22.6967076,7.18098958 22.6771763,7.12890625 C22.6576451,7.07682292 22.6478795,7.02799479 22.6478795,6.98242188 C22.6478795,6.93684896 22.6609003,6.88151042 22.686942,6.81640625 C22.5827753,6.62109375 22.4916295,6.41601562 22.4135045,6.20117188 C22.3353795,5.98632812 22.2572545,5.77148438 22.1791295,5.55664062 C22.1010045,5.34179688 22.0131138,5.13997396 21.9154576,4.95117188 C21.8178013,4.76236979 21.6908482,4.59635417 21.5345982,4.453125 L21.5345982,4.453125 L21.5345982,4.21875 C21.4304315,4.15364583 21.3425409,4.09179688 21.2709263,4.03320312 C21.1993118,3.97460938 21.1114211,3.91927083 21.0072545,3.8671875 C20.7989211,3.54166667 20.5352493,3.27799479 20.2162388,3.07617188 C19.8972284,2.87434896 19.6075149,2.67578125 19.3470982,2.48046875 C18.8392857,2.53255208 18.4193638,2.6953125 18.0873326,2.96875 C17.7553013,3.2421875 17.452567,3.5546875 17.1791295,3.90625 C16.905692,4.2578125 16.6387649,4.61914062 16.3783482,4.99023438 C16.1179315,5.36132812 15.8184524,5.67708333 15.4799107,5.9375 C15.4408482,5.84635417 15.3334263,5.77148438 15.1576451,5.71289062 C14.9818638,5.65429688 14.8223586,5.63802083 14.6791295,5.6640625 C14.5489211,5.95052083 14.4447545,6.26302083 14.3666295,6.6015625 C14.2885045,6.94010417 14.2136347,7.28515625 14.1420201,7.63671875 C14.0704055,7.98828125 13.9922805,8.34309896 13.9076451,8.70117188 C13.8230097,9.05924479 13.7155878,9.40755208 13.5853795,9.74609375 C13.5984003,9.81119792 13.6049107,9.89257812 13.6049107,9.99023438 C13.6049107,10.0878906 13.5984003,10.1855469 13.5853795,10.2832031 C13.5723586,10.3808594 13.5528274,10.4589844 13.5267857,10.5175781 C13.500744,10.5761719 13.4616815,10.5859375 13.4095982,10.546875 C13.4877232,10.7421875 13.5072545,10.9309896 13.468192,11.1132812 C13.4291295,11.2955729 13.3803013,11.4778646 13.3217076,11.6601562 C13.2631138,11.8424479 13.2142857,12.0377604 13.1752232,12.2460938 C13.1361607,12.4544271 13.0970982,12.6757812 13.0580357,12.9101562 C13.110119,13.0013021 13.155692,13.0924479 13.1947545,13.1835938 C13.233817,13.2747396 13.2859003,13.3203125 13.3510045,13.3203125 C13.3249628,13.4114583 13.3184524,13.4863281 13.3314732,13.5449219 C13.344494,13.6035156 13.3607701,13.6621094 13.3803013,13.7207031 C13.3998326,13.7792969 13.4161086,13.844401 13.4291295,13.9160156 C13.4421503,13.9876302 13.4356399,14.0755208 13.4095982,14.1796875 C13.5528274,14.1536458 13.640718,14.1861979 13.6732701,14.2773438 C13.7058222,14.3684896 13.735119,14.4661458 13.7611607,14.5703125 C13.8783482,14.5703125 13.9662388,14.5865885 14.0248326,14.6191406 C14.0834263,14.6516927 14.1322545,14.6842448 14.171317,14.7167969 C14.2103795,14.749349 14.2559524,14.7786458 14.3080357,14.8046875 C14.360119,14.8307292 14.4447545,14.8307292 14.561942,14.8046875 C14.640067,14.7526042 14.7116815,14.6940104 14.7767857,14.6289062 C14.8418899,14.5638021 14.9590774,14.5442708 15.1283482,14.5703125 C15.3497024,14.2838542 15.515718,14.0071615 15.6263951,13.7402344 C15.7370722,13.4733073 15.8640253,13.0794271 16.0072545,12.5585938 C16.2546503,12.7799479 16.4662388,12.96875 16.6420201,13.125 C16.8178013,13.28125 17.0131138,13.4277344 17.2279576,13.5644531 C17.4428013,13.7011719 17.6967076,13.8378906 17.9896763,13.9746094 C18.2826451,14.1113281 18.6635045,14.2708333 19.1322545,14.453125 C20.0697545,14.8177083 20.844494,15.0683594 21.4564732,15.2050781 Z M17.1010045,8.28125 C17.1530878,7.99479167 17.2442336,7.74414062 17.374442,7.52929688 C17.5046503,7.31445312 17.6511347,7.11914062 17.8138951,6.94335938 C17.9766555,6.76757812 18.1459263,6.59505208 18.3217076,6.42578125 C18.4974888,6.25651042 18.656994,6.06770833 18.8002232,5.859375 C19.047619,5.9375 19.2852493,6.10026042 19.5131138,6.34765625 C19.7409784,6.59505208 19.8809524,6.92057292 19.9330357,7.32421875 C19.4903274,7.50651042 19.0215774,7.69856771 18.5267857,7.90039062 C18.031994,8.10221354 17.5567336,8.22916667 17.1010045,8.28125 Z M32.4051339,14.8632812 C32.6785714,14.8502604 32.9389881,14.7851562 33.1863839,14.6679688 C33.4337798,14.5507812 33.6583891,14.4042969 33.8602121,14.2285156 C34.062035,14.0527344 34.2378162,13.8509115 34.3875558,13.6230469 C34.5372954,13.3951823 34.6512277,13.1705729 34.7293527,12.9492188 L34.7293527,12.9492188 L34.7684152,12.8710938 C34.7944568,12.6236979 34.7944568,12.3828125 34.7684152,12.1484375 C34.7423735,11.9140625 34.7098214,11.6861979 34.6707589,11.4648438 C34.6447173,11.3867188 34.6284412,11.311849 34.6219308,11.2402344 C34.6154204,11.1686198 34.6056548,11.09375 34.5926339,11.015625 C34.8921131,10.8723958 35.1622954,10.6933594 35.4031808,10.4785156 C35.6440662,10.2636719 35.8296131,10.0390625 35.9598214,9.8046875 L35.9598214,9.8046875 L36.1160714,9.51171875 L35.8231027,9.39453125 C35.7710193,9.36848958 35.718936,9.32942708 35.6668527,9.27734375 C35.6017485,9.21223958 35.5301339,9.15039062 35.4520089,9.09179688 C35.3738839,9.03320312 35.250186,8.99739583 35.0809152,8.984375 C34.9637277,8.91927083 34.8986235,8.85416667 34.8856027,8.7890625 L34.8856027,8.7890625 L34.8074777,8.59375 L34.5926339,8.61328125 C34.5014881,8.62630208 34.4201079,8.63932292 34.3484933,8.65234375 C34.2768787,8.66536458 34.2085193,8.68489583 34.1434152,8.7109375 C34.1173735,8.69791667 34.0522693,8.69140625 33.9481027,8.69140625 C33.843936,8.43098958 33.7593006,8.15429688 33.6941964,7.86132812 C33.6290923,7.56835938 33.5639881,7.265625 33.4988839,6.953125 C33.4598214,6.73177083 33.4175037,6.51367188 33.3719308,6.29882812 C33.3263579,6.08398438 33.2710193,5.86588542 33.2059152,5.64453125 C33.1928943,5.37109375 33.1701079,5.12369792 33.1375558,4.90234375 C33.1050037,4.68098958 33.0691964,4.45963542 33.0301339,4.23828125 C33.0040923,4.13411458 32.984561,4.02994792 32.9715402,3.92578125 C32.9585193,3.82161458 32.9129464,3.66536458 32.8348214,3.45703125 C32.7046131,3.32682292 32.5353423,3.22916667 32.3270089,3.1640625 C32.1186756,3.09895833 31.8973214,3.04036458 31.6629464,2.98828125 C31.5327381,2.94921875 31.4090402,2.91341146 31.2918527,2.88085938 C31.1746652,2.84830729 31.0835193,2.8125 31.0184152,2.7734375 L31.0184152,2.7734375 L30.7645089,2.6171875 L30.5691964,2.890625 C30.2827381,3.3203125 30.0027902,3.68815104 29.7293527,3.99414062 C29.4559152,4.30013021 29.1369048,4.53776042 28.7723214,4.70703125 L28.7723214,4.70703125 L28.4793527,4.66796875 C28.4142485,4.66796875 28.3556548,4.67773438 28.3035714,4.69726562 C28.2514881,4.71679688 28.2059152,4.73307292 28.1668527,4.74609375 L28.1668527,4.74609375 L27.8543527,4.8828125 C27.6850818,5.10416667 27.5451079,5.31901042 27.4344308,5.52734375 C27.3237537,5.73567708 27.2163318,5.95052083 27.1121652,6.171875 C27.0210193,6.35416667 26.9298735,6.53320312 26.8387277,6.70898438 C26.7475818,6.88476562 26.6303943,7.08333333 26.4871652,7.3046875 C26.4611235,7.36979167 26.4481027,7.42838542 26.4481027,7.48046875 C26.4481027,7.53255208 26.4546131,7.578125 26.4676339,7.6171875 C26.3634673,7.82552083 26.2625558,8.03385417 26.1648996,8.2421875 C26.0672433,8.45052083 25.9663318,8.65885417 25.8621652,8.8671875 C25.5496652,9.50520833 25.2469308,10.1302083 24.9539621,10.7421875 C24.6609933,11.3541667 24.3843006,11.9921875 24.1238839,12.65625 L24.1238839,12.65625 L24.1043527,12.9882812 L23.8895089,13.1640625 L24.1434152,13.3984375 C24.1694568,13.4244792 24.1857329,13.4635417 24.1922433,13.515625 C24.1987537,13.5677083 24.2150298,13.6328125 24.2410714,13.7109375 C24.2540923,13.7760417 24.2671131,13.8476562 24.2801339,13.9257812 C24.2931548,14.0039062 24.3582589,14.1210938 24.4754464,14.2773438 C24.5796131,14.3424479 24.6707589,14.4108073 24.7488839,14.4824219 C24.8270089,14.5540365 24.937686,14.6484375 25.0809152,14.765625 L25.0809152,14.765625 L25.2762277,14.7851562 C25.3543527,14.7851562 25.4227121,14.7786458 25.4813058,14.765625 C25.5398996,14.7526042 25.640811,14.7330729 25.7840402,14.7070312 L25.7840402,14.7070312 L26.0184152,14.6679688 L26.0770089,14.453125 C26.1030506,14.4401042 26.1388579,14.4238281 26.1844308,14.4042969 C26.2300037,14.3847656 26.265811,14.3619792 26.2918527,14.3359375 C26.3699777,14.296875 26.4481027,14.2545573 26.5262277,14.2089844 C26.6043527,14.1634115 26.6759673,14.1015625 26.7410714,14.0234375 L26.7410714,14.0234375 L26.8191964,13.8085938 C26.8061756,13.6523438 26.8224516,13.4928385 26.8680246,13.3300781 C26.9135975,13.1673177 26.968936,13.0013021 27.0340402,12.8320312 C27.0731027,12.7278646 27.1121652,12.6171875 27.1512277,12.5 C27.1902902,12.3828125 27.2228423,12.265625 27.2488839,12.1484375 C27.2749256,12.1223958 27.3009673,12.0996094 27.3270089,12.0800781 C27.3530506,12.0605469 27.3790923,12.0377604 27.4051339,12.0117188 L27.4051339,12.0117188 L27.5027902,11.6796875 C27.5027902,11.6536458 27.5093006,11.6178385 27.5223214,11.5722656 C27.5353423,11.5266927 27.5548735,11.4973958 27.5809152,11.484375 L27.5809152,11.484375 L27.7762277,11.4453125 L27.8543527,11.25 C27.8934152,11.0807292 27.9520089,10.9179688 28.0301339,10.7617188 C28.0431548,10.8789062 28.0822173,10.9960938 28.1473214,11.1132812 C28.1082589,11.2825521 28.124535,11.422526 28.1961496,11.5332031 C28.2677641,11.6438802 28.3361235,11.7317708 28.4012277,11.796875 C28.4272693,11.8229167 28.453311,11.8457031 28.4793527,11.8652344 C28.5053943,11.8847656 28.531436,11.9661458 28.5574777,12.109375 L28.5574777,12.109375 L28.7527902,12.1484375 C28.8569568,12.1614583 28.9546131,12.171224 29.0457589,12.1777344 C29.1369048,12.1842448 29.234561,12.1875 29.3387277,12.1875 C29.625186,12.1875 29.8888579,12.1647135 30.1297433,12.1191406 C30.3706287,12.0735677 30.6082589,12.0182292 30.8426339,11.953125 C31.0249256,11.9010417 31.2039621,11.8554688 31.3797433,11.8164062 C31.5555246,11.7773438 31.7736235,11.7838542 32.0340402,11.8359375 C32.0600818,12.1744792 32.0177641,12.4153646 31.9070871,12.5585938 C31.79641,12.7018229 31.578311,12.8190104 31.2527902,12.9101562 L31.2527902,12.9101562 L30.7254464,13.046875 L31.0574777,13.4179688 C31.0835193,13.4570312 31.1160714,13.4960938 31.1551339,13.5351562 L31.1551339,13.5351562 L31.2723214,13.6523438 C31.3895089,13.7565104 31.4676339,13.8378906 31.5066964,13.8964844 C31.5457589,13.9550781 31.5522693,14.0364583 31.5262277,14.140625 L31.5262277,14.140625 L31.4481027,14.3945312 L31.6824777,14.4921875 C31.7085193,14.5052083 31.7378162,14.5214844 31.7703683,14.5410156 C31.8029204,14.5605469 31.8387277,14.5833333 31.8777902,14.609375 C31.9428943,14.6484375 32.0047433,14.6907552 32.0633371,14.7363281 C32.1219308,14.781901 32.2358631,14.8242188 32.4051339,14.8632812 Z M28.6551339,9.609375 C28.7202381,9.4921875 28.7918527,9.375 28.8699777,9.2578125 C28.9481027,9.140625 29.0262277,9.0234375 29.1043527,8.90625 C29.2736235,8.60677083 29.4787016,8.28776042 29.7195871,7.94921875 C29.9604725,7.61067708 30.2111235,7.3046875 30.4715402,7.03125 L30.4715402,7.03125 L30.5887277,6.8359375 C30.7059152,7.25260417 30.8165923,7.67252604 30.9207589,8.09570312 C31.0249256,8.51888021 31.1225818,8.92578125 31.2137277,9.31640625 C30.8231027,9.39453125 30.468285,9.44986979 30.1492746,9.48242188 C29.8302641,9.51497396 29.4754464,9.54427083 29.0848214,9.5703125 C29.0197173,9.58333333 28.9513579,9.58984375 28.8797433,9.58984375 C28.8081287,9.58984375 28.7332589,9.59635417 28.6551339,9.609375 Z M39.3108259,14.6289062 C39.6623884,14.8763021 40.0367374,14.9121094 40.4338728,14.7363281 C40.8310082,14.5605469 41.1272321,14.2122396 41.3225446,13.6914062 C41.3095238,13.5221354 41.3192894,13.3951823 41.3518415,13.3105469 C41.3843936,13.2259115 41.3811384,13.0989583 41.3420759,12.9296875 C41.4592634,12.8255208 41.5797061,12.7050781 41.703404,12.5683594 C41.8271019,12.4316406 41.9410342,12.2884115 42.0452009,12.1386719 C42.1493676,11.9889323 42.2372582,11.8326823 42.3088728,11.6699219 C42.3804874,11.5071615 42.4228051,11.3346354 42.4358259,11.1523438 C42.4879092,11.1523438 42.5302269,11.1328125 42.562779,11.09375 C42.5953311,11.0546875 42.624628,11.0123698 42.6506696,10.9667969 C42.6767113,10.921224 42.7060082,10.8789062 42.7385603,10.8398438 C42.7711124,10.8007812 42.8199405,10.78125 42.8850446,10.78125 C43.1194196,10.2473958 43.3993676,9.73632812 43.7248884,9.24804688 C44.0504092,8.75976562 44.3922061,8.29427083 44.750279,7.8515625 C45.1083519,7.40885417 45.4664249,6.97916667 45.8244978,6.5625 C46.1825707,6.14583333 46.5113467,5.7421875 46.8108259,5.3515625 C46.7978051,5.14322917 46.8401228,4.96419271 46.937779,4.81445312 C47.0354353,4.66471354 47.1037946,4.49869792 47.1428571,4.31640625 C47.077753,4.34244792 47.0452009,4.34244792 47.0452009,4.31640625 C47.0452009,4.29036458 47.0484561,4.24804687 47.0549665,4.18945312 C47.0614769,4.13085937 47.0712426,4.06901042 47.0842634,4.00390625 C47.0972842,3.93880208 47.0842634,3.88671875 47.0452009,3.84765625 C46.9670759,3.67838542 46.9117374,3.54817708 46.8791853,3.45703125 C46.8466332,3.36588542 46.8205915,3.29101562 46.8010603,3.23242187 C46.781529,3.17382812 46.7587426,3.11523437 46.7327009,3.05664062 C46.7066592,2.99804687 46.6675967,2.90364583 46.6155134,2.7734375 C46.4592634,2.79947917 46.3355655,2.80273437 46.2444196,2.78320312 C46.1532738,2.76367187 46.0751488,2.74088542 46.0100446,2.71484375 C45.9449405,2.68880208 45.8700707,2.65625 45.7854353,2.6171875 C45.7007999,2.578125 45.593378,2.55208333 45.4631696,2.5390625 C44.7991071,3.17708333 44.2587426,3.75 43.8420759,4.2578125 C43.4254092,4.765625 43.0478051,5.26692708 42.7092634,5.76171875 C42.3707217,6.25651042 42.0386905,6.77408854 41.7131696,7.31445312 C41.3876488,7.85481771 40.984003,8.47005208 40.5022321,9.16015625 C40.4241071,8.92578125 40.3720238,8.64583333 40.3459821,8.3203125 C40.3199405,7.99479167 40.2938988,7.65299479 40.2678571,7.29492187 C40.2418155,6.93684896 40.2092634,6.57226562 40.1702009,6.20117187 C40.1311384,5.83007812 40.062779,5.47851562 39.9651228,5.14648437 C39.8674665,4.81445312 39.7372582,4.51497396 39.5744978,4.24804687 C39.4117374,3.98111979 39.1936384,3.76302083 38.9202009,3.59375 C38.9592634,3.41145833 38.8941592,3.21614583 38.7248884,3.0078125 C38.5556176,2.79947917 38.327753,2.68229167 38.0412946,2.65625 C37.9241071,2.7734375 37.797154,2.88085937 37.6604353,2.97851562 C37.5237165,3.07617187 37.4162946,3.203125 37.3381696,3.359375 C37.2730655,3.50260417 37.2405134,3.70117187 37.2405134,3.95507812 C37.2405134,4.20898437 37.2535342,4.48893229 37.2795759,4.79492187 C37.3056176,5.10091146 37.3349144,5.41992187 37.3674665,5.75195312 C37.4000186,6.08398437 37.4162946,6.39322917 37.4162946,6.6796875 C37.4162946,6.97916667 37.406529,7.29492187 37.3869978,7.62695312 C37.3674665,7.95898437 37.3837426,8.27473958 37.4358259,8.57421875 C37.4618676,8.71744792 37.5041853,8.84114583 37.562779,8.9453125 C37.6213728,9.04947917 37.6441592,9.16666667 37.6311384,9.296875 C37.6181176,9.55729167 37.6343936,9.84049479 37.6799665,10.1464844 C37.7255394,10.452474 37.780878,10.764974 37.8459821,11.0839844 C37.9110863,11.4029948 37.9827009,11.71875 38.0608259,12.03125 C38.1389509,12.34375 38.1975446,12.6367188 38.2366071,12.9101562 C38.327753,12.9231771 38.4123884,13.0403646 38.4905134,13.2617188 C38.5686384,13.4830729 38.5881696,13.7044271 38.5491071,13.9257812 C38.718378,13.9648438 38.8518415,14.0657552 38.9494978,14.2285156 C39.047154,14.391276 39.1675967,14.5247396 39.3108259,14.6289062 Z M49.4977679,14.84375 C49.9274554,14.8567708 50.3506324,14.8372396 50.7672991,14.7851562 C51.1839658,14.7330729 51.5420387,14.6744792 51.8415179,14.609375 C51.9456845,14.609375 52.0368304,14.625651 52.1149554,14.6582031 C52.1930804,14.6907552 52.2907366,14.6940104 52.4079241,14.6679688 C52.8896949,14.5768229 53.3291481,14.4986979 53.7262835,14.4335938 C54.1234189,14.3684896 54.484747,14.2773438 54.8102679,14.1601562 C55.1357887,14.0429688 55.4255022,13.8704427 55.6794085,13.6425781 C55.9333147,13.4147135 56.1579241,13.0859375 56.3532366,12.65625 C56.2751116,12.6692708 56.2197731,12.6529948 56.187221,12.6074219 C56.1546689,12.561849 56.1318824,12.5065104 56.1188616,12.4414062 C56.1058408,12.3763021 56.0895647,12.3079427 56.0700335,12.2363281 C56.0505022,12.1647135 56.0146949,12.1028646 55.9626116,12.0507812 C55.8454241,12.0638021 55.7477679,12.0377604 55.6696429,11.9726562 C55.5915179,11.9075521 55.5166481,11.8326823 55.4450335,11.7480469 C55.3734189,11.6634115 55.2985491,11.5722656 55.2204241,11.4746094 C55.1422991,11.3769531 55.0511533,11.3085938 54.9469866,11.2695312 C54.6475074,11.3736979 54.3187314,11.4485677 53.9606585,11.4941406 C53.6025856,11.5397135 53.2933408,11.6341146 53.0329241,11.7773438 C52.6162574,11.7643229 52.2712054,11.7740885 51.9977679,11.8066406 C51.7243304,11.8391927 51.4574033,11.8717448 51.1969866,11.9042969 C50.9365699,11.936849 50.6598772,11.9596354 50.3669085,11.9726562 C50.0739397,11.9856771 49.7061012,11.9596354 49.2633929,11.8945312 C49.3936012,11.5429688 49.5433408,11.2109375 49.7126116,10.8984375 C49.8818824,10.5859375 50.0706845,10.2929688 50.2790179,10.0195312 C50.4352679,10.0716146 50.6143043,10.094401 50.8161272,10.0878906 C51.0179501,10.0813802 51.1904762,10.1106771 51.3337054,10.1757812 C51.437872,10.1106771 51.5843564,10.0911458 51.7731585,10.1171875 C51.9619606,10.1432292 52.1084449,10.1236979 52.2126116,10.0585938 C52.2646949,10.0976562 52.3070126,10.1171875 52.3395647,10.1171875 L52.3395647,10.1171875 L52.4860491,10.1171875 C52.7985491,10.1302083 53.0817522,10.1009115 53.3356585,10.0292969 C53.5895647,9.95768229 53.8304501,9.86328125 54.0583147,9.74609375 C54.2861793,9.62890625 54.5042783,9.49544271 54.7126116,9.34570312 C54.9209449,9.19596354 55.1292783,9.04947917 55.3376116,8.90625 C55.3896949,8.77604167 55.405971,8.64908854 55.3864397,8.52539062 C55.3669085,8.40169271 55.3311012,8.28776042 55.2790179,8.18359375 C55.1488095,8.19661458 55.0348772,8.17382812 54.937221,8.11523438 C54.8395647,8.05664062 54.7451637,7.98177083 54.6540179,7.890625 C54.562872,7.79947917 54.4717262,7.70507812 54.3805804,7.60742188 C54.2894345,7.50976562 54.1982887,7.42838542 54.1071429,7.36328125 C54.094122,7.31119792 54.1006324,7.27539062 54.1266741,7.25585938 C54.1527158,7.23632812 54.1592262,7.19401042 54.1462054,7.12890625 C53.6123512,7.14192708 53.0687314,7.17447917 52.515346,7.2265625 C51.9619606,7.27864583 51.4574033,7.28515625 51.0016741,7.24609375 C50.9626116,7.16796875 50.9463356,7.06705729 50.952846,6.94335938 C50.9593564,6.81966146 50.9365699,6.69921875 50.8844866,6.58203125 C51.0016741,6.54296875 51.1188616,6.50716146 51.2360491,6.47460938 C51.3532366,6.44205729 51.4508929,6.38671875 51.5290179,6.30859375 C51.7894345,6.33463542 51.9880022,6.31510417 52.124721,6.25 C52.2614397,6.18489583 52.4144345,6.18489583 52.5837054,6.25 C53.0133929,5.98958333 53.4463356,5.8203125 53.8825335,5.7421875 C54.3187314,5.6640625 54.7451637,5.58919271 55.1618304,5.51757812 C55.578497,5.44596354 55.9658668,5.32877604 56.3239397,5.16601562 C56.6820126,5.00325521 56.9977679,4.70052083 57.2712054,4.2578125 C57.2451637,4.16666667 57.2321429,4.09830729 57.2321429,4.05273438 C57.2321429,4.00716146 57.2353981,3.96484375 57.2419085,3.92578125 C57.2484189,3.88671875 57.2549293,3.84440104 57.2614397,3.79882812 C57.2679501,3.75325521 57.2646949,3.68489583 57.2516741,3.59375 C57.0042783,3.48958333 56.7796689,3.36263021 56.577846,3.21289062 C56.3760231,3.06315104 56.2100074,2.87760417 56.0797991,2.65625 C56.0928199,2.7734375 56.0635231,2.80924479 55.9919085,2.76367188 C55.9202939,2.71809896 55.8584449,2.75390625 55.8063616,2.87109375 C55.7021949,2.87109375 55.5915179,2.8125 55.4743304,2.6953125 C54.9274554,2.79947917 54.4391741,2.87760417 54.0094866,2.9296875 C53.5797991,2.98177083 53.1663876,3.03710938 52.7692522,3.09570312 C52.3721168,3.15429688 51.968471,3.22916667 51.5583147,3.3203125 C51.1481585,3.41145833 50.6826637,3.54166667 50.1618304,3.7109375 C49.875372,3.77604167 49.6019345,3.83463542 49.3415179,3.88671875 C49.0811012,3.93880208 48.8402158,4.00390625 48.6188616,4.08203125 C48.3975074,4.16015625 48.1924293,4.26106771 48.0036272,4.38476562 C47.8148251,4.50846354 47.6553199,4.66796875 47.5251116,4.86328125 C47.5902158,5.08463542 47.6357887,5.30273438 47.6618304,5.51757812 C47.687872,5.73242188 47.7204241,5.94075521 47.7594866,6.14257812 C47.7985491,6.34440104 47.8603981,6.54622396 47.9450335,6.74804688 C48.0296689,6.94986979 48.1631324,7.13541667 48.3454241,7.3046875 C48.2542783,7.55208333 48.1598772,7.77669271 48.062221,7.97851562 C47.9645647,8.18033854 47.8669085,8.37890625 47.7692522,8.57421875 C47.671596,8.76953125 47.5771949,8.97135417 47.4860491,9.1796875 C47.3949033,9.38802083 47.3102679,9.609375 47.2321429,9.84375 C47.140997,9.83072917 47.0889137,9.85351562 47.0758929,9.91210938 C47.062872,9.97070312 47.0238095,10.0065104 46.9587054,10.0195312 C46.9977679,10.2018229 46.9554501,10.3710938 46.8317522,10.5273438 C46.7080543,10.6835938 46.6266741,10.859375 46.5876116,11.0546875 C46.5485491,11.2369792 46.5387835,11.4388021 46.5583147,11.6601562 C46.577846,11.8815104 46.6071429,12.1061198 46.6462054,12.3339844 C46.6852679,12.561849 46.7243304,12.7799479 46.7633929,12.9882812 C46.8024554,13.1966146 46.828497,13.3854167 46.8415179,13.5546875 C46.984747,13.6197917 47.0726376,13.7141927 47.1051897,13.8378906 C47.1377418,13.9615885 47.2061012,14.0690104 47.3102679,14.1601562 C47.5576637,14.4075521 47.8766741,14.5800781 48.2672991,14.6777344 C48.6579241,14.7753906 49.0680804,14.8307292 49.4977679,14.84375 Z M60.1729911,14.9023438 C60.6026786,14.9023438 61.0323661,14.84375 61.4620536,14.7265625 C61.8917411,14.609375 62.2888765,14.4921875 62.6534598,14.375 L62.6534598,14.375 L63.1026786,14.2578125 C63.2719494,14.2578125 63.437965,14.2513021 63.6007254,14.2382812 C63.7634859,14.2252604 63.9229911,14.2057292 64.0792411,14.1796875 C64.2354911,14.1666667 64.3917411,14.1536458 64.5479911,14.140625 C64.7042411,14.1276042 64.8539807,14.1210938 64.9972098,14.1210938 C65.374814,14.1210938 65.7393973,14.1796875 66.0909598,14.296875 C66.3513765,14.2317708 66.5727307,14.1992188 66.7550223,14.1992188 L66.7550223,14.1992188 L66.8819754,14.1992188 C66.9275484,14.1992188 67.0024182,14.1927083 67.1065848,14.1796875 C67.171689,14.1145833 67.2400484,14.0559896 67.3116629,14.0039062 C67.3832775,13.9518229 67.5167411,13.90625 67.7120536,13.8671875 L67.7120536,13.8671875 L67.6729911,13.6523438 C67.7250744,13.6002604 67.7511161,13.5221354 67.7511161,13.4179688 C67.7641369,13.3789062 67.7250744,13.3007812 67.6339286,13.1835938 L67.6339286,13.1835938 L67.4972098,12.34375 C67.3670015,12.2395833 67.2335379,12.1582031 67.0968192,12.0996094 C66.9601004,12.0410156 66.8201265,11.9856771 66.6768973,11.9335938 C66.5206473,11.8815104 66.3709077,11.8229167 66.2276786,11.7578125 C66.0844494,11.6927083 65.9347098,11.5885417 65.7784598,11.4453125 C65.7133557,11.4322917 65.6352307,11.4257812 65.5440848,11.4257812 C65.4789807,11.4257812 65.4301525,11.422526 65.3976004,11.4160156 C65.3650484,11.4095052 65.2901786,11.3736979 65.1729911,11.3085938 C65.0167411,11.3346354 64.8474702,11.3476562 64.6651786,11.3476562 L64.6651786,11.3476562 L64.1183036,11.3476562 C63.6625744,11.3606771 63.20359,11.3867188 62.7413504,11.4257812 C62.2791109,11.4648438 61.8526786,11.5885417 61.4620536,11.796875 C61.3058036,11.7578125 61.1690848,11.7382812 61.0518973,11.7382812 L61.0518973,11.7382812 L60.8858817,11.7382812 C60.8272879,11.7382812 60.765439,11.7513021 60.7003348,11.7773438 C60.7263765,11.2955729 60.8012463,10.8658854 60.9249442,10.4882812 C61.0486421,10.1106771 61.1886161,9.73307292 61.3448661,9.35546875 C61.4360119,9.14713542 61.5239025,8.93880208 61.6085379,8.73046875 C61.6931734,8.52213542 61.7550223,8.24869792 61.7940848,7.91015625 C61.859189,7.85807292 61.9080171,7.79622396 61.9405692,7.72460938 C61.9731213,7.65299479 62.0024182,7.58463542 62.0284598,7.51953125 C62.0545015,7.45442708 62.0772879,7.39583333 62.0968192,7.34375 C62.1163504,7.29166667 62.1521577,7.23307292 62.2042411,7.16796875 C62.2563244,6.88151042 62.3214286,6.640625 62.3995536,6.4453125 C62.4776786,6.25 62.562314,6.0546875 62.6534598,5.859375 C62.7315848,5.67708333 62.8064546,5.49479167 62.8780692,5.3125 C62.9496838,5.13020833 63.0180432,4.90885417 63.0831473,4.6484375 C63.1222098,4.6484375 63.1808036,4.58984375 63.2589286,4.47265625 C63.2979911,4.18619792 63.265439,3.95507812 63.1612723,3.77929688 C63.0571057,3.60351562 62.9334077,3.43098958 62.7901786,3.26171875 C62.7641369,3.23567708 62.7380952,3.20638021 62.7120536,3.17382812 C62.6860119,3.14127604 62.6209077,3.09244792 62.5167411,3.02734375 C62.3084077,3.02734375 62.0479911,2.97200521 61.7354911,2.86132812 C61.4229911,2.75065104 61.1495536,2.63671875 60.9151786,2.51953125 C60.8630952,2.53255208 60.7979911,2.55208333 60.7198661,2.578125 C60.6677827,2.60416667 60.5896577,2.64973958 60.4854911,2.71484375 C60.3292411,3.37890625 60.1534598,3.99739583 59.9581473,4.5703125 C59.7628348,5.14322917 59.5545015,5.72265625 59.3331473,6.30859375 C59.202939,6.64713542 59.0759859,6.98893229 58.9522879,7.33398438 C58.82859,7.67903646 58.6755952,8.09895833 58.4933036,8.59375 C58.4281994,8.7109375 58.3696057,8.84114583 58.3175223,8.984375 C58.265439,9.12760417 58.265439,9.2578125 58.3175223,9.375 C58.2133557,9.51822917 58.1319754,9.6875 58.0733817,9.8828125 C58.0147879,10.078125 57.9594494,10.2799479 57.9073661,10.4882812 C57.8943452,10.5533854 57.8845796,10.6119792 57.8780692,10.6640625 C57.8715588,10.7161458 57.8552827,10.7682292 57.8292411,10.8203125 C57.7641369,11.0546875 57.7218192,11.3020833 57.7022879,11.5625 C57.6827567,11.8229167 57.6892671,12.0800781 57.7218192,12.3339844 C57.7543713,12.5878906 57.8162202,12.8352865 57.9073661,13.0761719 C57.9985119,13.3170573 58.1222098,13.5286458 58.2784598,13.7109375 C58.2914807,13.8151042 58.3142671,13.8964844 58.3468192,13.9550781 C58.3793713,14.0136719 58.4151786,14.0690104 58.4542411,14.1210938 C58.5063244,14.1731771 58.5649182,14.2708333 58.6300223,14.4140625 C59.0076265,14.7395833 59.5219494,14.9023438 60.1729911,14.9023438 Z M72.0200893,14.84375 C72.4497768,14.8567708 72.8729539,14.8372396 73.2896205,14.7851562 C73.7062872,14.7330729 74.0643601,14.6744792 74.3638393,14.609375 C74.468006,14.609375 74.5591518,14.625651 74.6372768,14.6582031 C74.7154018,14.6907552 74.813058,14.6940104 74.9302455,14.6679688 C75.4120164,14.5768229 75.8514695,14.4986979 76.2486049,14.4335938 C76.6457403,14.3684896 77.0070685,14.2773438 77.3325893,14.1601562 C77.6581101,14.0429688 77.9478237,13.8704427 78.2017299,13.6425781 C78.4556362,13.4147135 78.6802455,13.0859375 78.875558,12.65625 C78.797433,12.6692708 78.7420945,12.6529948 78.7095424,12.6074219 C78.6769903,12.561849 78.6542039,12.5065104 78.641183,12.4414062 C78.6281622,12.3763021 78.6118862,12.3079427 78.5923549,12.2363281 C78.5728237,12.1647135 78.5370164,12.1028646 78.484933,12.0507812 C78.3677455,12.0638021 78.2700893,12.0377604 78.1919643,11.9726562 C78.1138393,11.9075521 78.0389695,11.8326823 77.9673549,11.7480469 C77.8957403,11.6634115 77.8208705,11.5722656 77.7427455,11.4746094 C77.6646205,11.3769531 77.5734747,11.3085938 77.469308,11.2695312 C77.1698289,11.3736979 76.8410528,11.4485677 76.4829799,11.4941406 C76.124907,11.5397135 75.8156622,11.6341146 75.5552455,11.7773438 C75.1385789,11.7643229 74.7935268,11.7740885 74.5200893,11.8066406 C74.2466518,11.8391927 73.9797247,11.8717448 73.719308,11.9042969 C73.4588914,11.936849 73.1821987,11.9596354 72.8892299,11.9726562 C72.5962612,11.9856771 72.2284226,11.9596354 71.7857143,11.8945312 C71.9159226,11.5429688 72.0656622,11.2109375 72.234933,10.8984375 C72.4042039,10.5859375 72.593006,10.2929688 72.8013393,10.0195312 C72.9575893,10.0716146 73.1366257,10.094401 73.3384487,10.0878906 C73.5402716,10.0813802 73.7127976,10.1106771 73.8560268,10.1757812 C73.9601935,10.1106771 74.1066778,10.0911458 74.2954799,10.1171875 L74.403683,10.1273438 C74.541183,10.1335938 74.6515997,10.1106771 74.734933,10.0585938 C74.7870164,10.0976562 74.8293341,10.1171875 74.8618862,10.1171875 L74.8618862,10.1171875 L75.0083705,10.1171875 C75.3208705,10.1302083 75.6040737,10.1009115 75.8579799,10.0292969 C76.1118862,9.95768229 76.3527716,9.86328125 76.5806362,9.74609375 C76.8085007,9.62890625 77.0265997,9.49544271 77.234933,9.34570312 C77.4432664,9.19596354 77.6515997,9.04947917 77.859933,8.90625 C77.9120164,8.77604167 77.9282924,8.64908854 77.9087612,8.52539062 C77.8892299,8.40169271 77.8534226,8.28776042 77.8013393,8.18359375 C77.671131,8.19661458 77.5571987,8.17382812 77.4595424,8.11523438 C77.3618862,8.05664062 77.2674851,7.98177083 77.1763393,7.890625 C77.0851935,7.79947917 76.9940476,7.70507812 76.9029018,7.60742188 C76.811756,7.50976562 76.7206101,7.42838542 76.6294643,7.36328125 C76.6164435,7.31119792 76.6229539,7.27539062 76.6489955,7.25585938 C76.6750372,7.23632812 76.6815476,7.19401042 76.6685268,7.12890625 C76.1346726,7.14192708 75.5910528,7.17447917 75.0376674,7.2265625 C74.484282,7.27864583 73.9797247,7.28515625 73.5239955,7.24609375 C73.484933,7.16796875 73.468657,7.06705729 73.4751674,6.94335938 C73.4816778,6.81966146 73.4588914,6.69921875 73.406808,6.58203125 C73.5239955,6.54296875 73.641183,6.50716146 73.7583705,6.47460938 C73.875558,6.44205729 73.9732143,6.38671875 74.0513393,6.30859375 C74.311756,6.33463542 74.5103237,6.31510417 74.6470424,6.25 C74.7837612,6.18489583 74.936756,6.18489583 75.1060268,6.25 C75.5357143,5.98958333 75.968657,5.8203125 76.4048549,5.7421875 C76.8410528,5.6640625 77.2674851,5.58919271 77.6841518,5.51757812 C78.1008185,5.44596354 78.4881882,5.32877604 78.8462612,5.16601562 C79.2043341,5.00325521 79.5200893,4.70052083 79.7935268,4.2578125 C79.7674851,4.16666667 79.7544643,4.09830729 79.7544643,4.05273438 C79.7544643,4.00716146 79.7577195,3.96484375 79.7642299,3.92578125 C79.7707403,3.88671875 79.7772507,3.84440104 79.7837612,3.79882812 C79.7902716,3.75325521 79.7870164,3.68489583 79.7739955,3.59375 C79.5265997,3.48958333 79.3019903,3.36263021 79.1001674,3.21289062 C78.8983445,3.06315104 78.7323289,2.87760417 78.6021205,2.65625 C78.6151414,2.7734375 78.5858445,2.80924479 78.5142299,2.76367188 C78.4426153,2.71809896 78.3807664,2.75390625 78.328683,2.87109375 C78.2245164,2.87109375 78.1138393,2.8125 77.9966518,2.6953125 C77.4497768,2.79947917 76.9614955,2.87760417 76.531808,2.9296875 C76.1021205,2.98177083 75.6887091,3.03710938 75.2915737,3.09570312 C74.8944382,3.15429688 74.4907924,3.22916667 74.0806362,3.3203125 C73.6704799,3.41145833 73.2049851,3.54166667 72.6841518,3.7109375 C72.3976935,3.77604167 72.124256,3.83463542 71.8638393,3.88671875 C71.6034226,3.93880208 71.3625372,4.00390625 71.141183,4.08203125 C70.9198289,4.16015625 70.7147507,4.26106771 70.5259487,4.38476562 C70.3371466,4.50846354 70.1776414,4.66796875 70.047433,4.86328125 C70.1125372,5.08463542 70.1581101,5.30273438 70.1841518,5.51757812 C70.2101935,5.73242188 70.2427455,5.94075521 70.281808,6.14257812 C70.3208705,6.34440104 70.3827195,6.54622396 70.4673549,6.74804688 C70.5519903,6.94986979 70.6854539,7.13541667 70.8677455,7.3046875 C70.7765997,7.55208333 70.6821987,7.77669271 70.5845424,7.97851562 C70.4868862,8.18033854 70.3892299,8.37890625 70.2915737,8.57421875 C70.1939174,8.76953125 70.0995164,8.97135417 70.0083705,9.1796875 C69.9172247,9.38802083 69.8325893,9.609375 69.7544643,9.84375 C69.6633185,9.83072917 69.6112351,9.85351562 69.5982143,9.91210938 C69.5851935,9.97070312 69.546131,10.0065104 69.4810268,10.0195312 C69.5200893,10.2018229 69.4777716,10.3710938 69.3540737,10.5273438 C69.2303757,10.6835938 69.1489955,10.859375 69.109933,11.0546875 C69.0708705,11.2369792 69.0611049,11.4388021 69.0806362,11.6601562 C69.1001674,11.8815104 69.1294643,12.1061198 69.1685268,12.3339844 C69.2075893,12.561849 69.2466518,12.7799479 69.2857143,12.9882812 C69.3247768,13.1966146 69.3508185,13.3854167 69.3638393,13.5546875 C69.5070685,13.6197917 69.5949591,13.7141927 69.6275112,13.8378906 C69.6600632,13.9615885 69.7284226,14.0690104 69.8325893,14.1601562 C70.0799851,14.4075521 70.3989955,14.5800781 70.7896205,14.6777344 C71.1802455,14.7753906 71.5904018,14.8307292 72.0200893,14.84375 Z M88.4179688,15.2050781 C89.0299479,15.3417969 89.5377604,15.3320313 89.9414062,15.1757812 C90.0585938,15.1627604 90.1497396,15.1269531 90.2148438,15.0683594 C90.2799479,15.0097656 90.3385417,14.9414062 90.390625,14.8632812 L90.390625,14.8632812 L90.546875,14.6289062 C90.5989583,14.5507812 90.6640625,14.4856771 90.7421875,14.4335938 C90.6901042,14.4205729 90.641276,14.4173177 90.5957031,14.4238281 C90.5501302,14.4303385 90.5208333,14.4140625 90.5078125,14.375 C90.5859375,14.2838542 90.6315104,14.1634115 90.6445312,14.0136719 C90.6575521,13.8639323 90.6510417,13.7076823 90.625,13.5449219 C90.5989583,13.3821615 90.5436198,13.219401 90.4589844,13.0566406 C90.374349,12.8938802 90.2734375,12.7539062 90.15625,12.6367188 C89.8567708,12.6106771 89.625651,12.5878906 89.4628906,12.5683594 C89.3001302,12.5488281 89.140625,12.5227865 88.984375,12.4902344 C88.828125,12.4576823 88.655599,12.4186198 88.4667969,12.3730469 C88.2779948,12.327474 88.0143229,12.265625 87.6757812,12.1875 C87.3372396,12.109375 87.0735677,12.0410156 86.8847656,11.9824219 C86.6959635,11.9238281 86.5201823,11.8554688 86.3574219,11.7773438 C86.1946615,11.6992188 86.0221354,11.6015625 85.8398438,11.484375 C85.6575521,11.3671875 85.4101562,11.2109375 85.0976562,11.015625 C85.1106771,10.9505208 85.094401,10.9179688 85.0488281,10.9179688 C85.0032552,10.9179688 84.9804688,10.8919271 84.9804688,10.8398438 C85.4101562,10.6575521 85.8919271,10.4882812 86.4257812,10.3320312 C86.9596354,10.1757812 87.4609375,9.98372396 87.9296875,9.75585938 C88.3984375,9.52799479 88.7988281,9.23828125 89.1308594,8.88671875 C89.4628906,8.53515625 89.6484375,8.07291667 89.6875,7.5 C89.7005208,7.40885417 89.7005208,7.33723958 89.6875,7.28515625 C89.6744792,7.23307292 89.6582031,7.18098958 89.6386719,7.12890625 C89.6191406,7.07682292 89.609375,7.02799479 89.609375,6.98242188 C89.609375,6.93684896 89.6223958,6.88151042 89.6484375,6.81640625 C89.5442708,6.62109375 89.453125,6.41601562 89.375,6.20117188 C89.296875,5.98632812 89.21875,5.77148438 89.140625,5.55664062 C89.0625,5.34179688 88.9746094,5.13997396 88.8769531,4.95117188 C88.7792969,4.76236979 88.6523438,4.59635417 88.4960938,4.453125 L88.4960938,4.453125 L88.4960938,4.21875 C88.3919271,4.15364583 88.3040365,4.09179688 88.2324219,4.03320312 C88.1608073,3.97460938 88.0729167,3.91927083 87.96875,3.8671875 C87.7604167,3.54166667 87.4967448,3.27799479 87.1777344,3.07617188 C86.858724,2.87434896 86.5690104,2.67578125 86.3085938,2.48046875 C85.8007812,2.53255208 85.3808594,2.6953125 85.0488281,2.96875 C84.7167969,3.2421875 84.4140625,3.5546875 84.140625,3.90625 C83.8671875,4.2578125 83.6002604,4.61914062 83.3398438,4.99023438 C83.0794271,5.36132812 82.7799479,5.67708333 82.4414062,5.9375 C82.4023438,5.84635417 82.2949219,5.77148438 82.1191406,5.71289062 C81.9433594,5.65429688 81.7838542,5.63802083 81.640625,5.6640625 C81.5104167,5.95052083 81.40625,6.26302083 81.328125,6.6015625 C81.25,6.94010417 81.1751302,7.28515625 81.1035156,7.63671875 C81.031901,7.98828125 80.953776,8.34309896 80.8691406,8.70117188 C80.7845052,9.05924479 80.6770833,9.40755208 80.546875,9.74609375 C80.5598958,9.81119792 80.5664062,9.89257812 80.5664062,9.99023438 C80.5664062,10.0878906 80.5598958,10.1855469 80.546875,10.2832031 C80.5338542,10.3808594 80.5143229,10.4589844 80.4882812,10.5175781 C80.4622396,10.5761719 80.4231771,10.5859375 80.3710938,10.546875 C80.4492188,10.7421875 80.46875,10.9309896 80.4296875,11.1132812 C80.390625,11.2955729 80.3417969,11.4778646 80.2832031,11.6601562 C80.2246094,11.8424479 80.1757812,12.0377604 80.1367188,12.2460938 C80.0976562,12.4544271 80.0585938,12.6757812 80.0195312,12.9101562 C80.0716146,13.0013021 80.1171875,13.0924479 80.15625,13.1835938 C80.1953125,13.2747396 80.2473958,13.3203125 80.3125,13.3203125 C80.2864583,13.4114583 80.2799479,13.4863281 80.2929688,13.5449219 C80.3059896,13.6035156 80.3222656,13.6621094 80.3417969,13.7207031 C80.3613281,13.7792969 80.3776042,13.844401 80.390625,13.9160156 C80.4036458,13.9876302 80.3971354,14.0755208 80.3710938,14.1796875 C80.5143229,14.1536458 80.6022135,14.1861979 80.6347656,14.2773438 C80.6673177,14.3684896 80.6966146,14.4661458 80.7226562,14.5703125 C80.8398438,14.5703125 80.9277344,14.5865885 80.9863281,14.6191406 C81.0449219,14.6516927 81.09375,14.6842448 81.1328125,14.7167969 C81.171875,14.749349 81.2174479,14.7786458 81.2695312,14.8046875 C81.3216146,14.8307292 81.40625,14.8307292 81.5234375,14.8046875 C81.6015625,14.7526042 81.6731771,14.6940104 81.7382812,14.6289062 C81.8033854,14.5638021 81.9205729,14.5442708 82.0898438,14.5703125 C82.3111979,14.2838542 82.4772135,14.0071615 82.5878906,13.7402344 C82.6985677,13.4733073 82.8255208,13.0794271 82.96875,12.5585938 C83.2161458,12.7799479 83.4277344,12.96875 83.6035156,13.125 C83.7792969,13.28125 83.9746094,13.4277344 84.1894531,13.5644531 C84.4042969,13.7011719 84.6582031,13.8378906 84.9511719,13.9746094 C85.2441406,14.1113281 85.625,14.2708333 86.09375,14.453125 C87.03125,14.8177083 87.8059896,15.0683594 88.4179688,15.2050781 Z M84.0625,8.28125 C84.1145833,7.99479167 84.2057292,7.74414062 84.3359375,7.52929688 C84.4661458,7.31445312 84.6126302,7.11914062 84.7753906,6.94335938 C84.938151,6.76757812 85.1074219,6.59505208 85.2832031,6.42578125 C85.4589844,6.25651042 85.6184896,6.06770833 85.7617188,5.859375 C86.0091146,5.9375 86.2467448,6.10026042 86.4746094,6.34765625 C86.702474,6.59505208 86.8424479,6.92057292 86.8945312,7.32421875 C86.4518229,7.50651042 85.9830729,7.69856771 85.4882812,7.90039062 C84.9934896,8.10221354 84.5182292,8.22916667 84.0625,8.28125 Z" id="Traveler-Copy" fill="#13173D" fill-rule="nonzero"></path>
    </g>
</svg>